<?xml version="1.0" standalone="no"?>
<!DOCTYPE svg PUBLIC "-//W3C//DTD SVG 20010904//EN"
 "http://www.w3.org/TR/2001/REC-SVG-20010904/DTD/svg10.dtd">
<svg version="1.0" xmlns="http://www.w3.org/2000/svg"
 width="960.000000pt" height="960.000000pt" viewBox="0 0 960.000000 960.000000"
 preserveAspectRatio="xMidYMid meet">
<metadata>
Created by potrace 1.14, written by Peter Selinger 2001-2017
</metadata>
<g transform="translate(0.000000,960.000000) scale(0.100000,-0.100000)"
fill="#000000" stroke="none">
<path d="M72 4898 l3 -1443 4537 -3 4538 -2 0 1445 0 1445 -4540 0 -4540 0 2
-1442z m8778 2 l0 -1140 -4235 0 -4235 0 0 1140 0 1140 4235 0 4235 0 0 -1140z"/>
<path d="M7560 5863 c-257 -43 -454 -195 -565 -437 -115 -248 -124 -661 -20
-921 86 -214 247 -373 445 -439 150 -50 356 -58 503 -21 194 50 356 185 452
375 38 76 75 189 75 231 l0 29 -180 0 c-178 0 -181 0 -189 -22 -47 -120 -69
-164 -102 -202 -99 -112 -296 -142 -445 -69 -102 50 -190 170 -223 305 -35
144 -33 365 5 511 37 147 124 264 231 315 52 24 69 27 168 27 105 0 114 -2
177 -33 84 -41 130 -94 166 -189 l27 -73 188 0 c213 0 197 -9 172 99 -20 85
-93 223 -155 293 -96 108 -241 184 -405 213 -80 14 -264 18 -325 8z"/>
<path d="M765 5828 c-3 -7 -4 -404 -3 -883 l3 -870 628 -3 627 -2 0 160 0 160
-440 0 -440 0 0 725 0 725 -185 0 c-139 0 -187 -3 -190 -12z"/>
<path d="M3740 4956 l0 -886 185 0 185 0 0 345 0 345 218 0 c243 0 299 -9 344
-57 41 -45 50 -87 58 -293 5 -118 15 -223 25 -267 l17 -73 204 0 204 0 0 24
c0 14 -11 37 -25 52 -37 40 -45 84 -45 251 0 176 -13 289 -42 355 -22 52 -88
119 -142 145 l-34 16 48 24 c149 74 240 277 211 472 -22 145 -118 293 -235
360 -110 63 -121 64 -673 69 l-503 3 0 -885z m915 551 c89 -40 131 -121 123
-241 -7 -113 -57 -173 -159 -195 -27 -6 -153 -11 -279 -11 l-230 0 0 236 0
236 253 -4 c214 -3 258 -6 292 -21z"/>
</g>
</svg>
