<?xml version="1.0" standalone="no"?>
<!DOCTYPE svg PUBLIC "-//W3C//DTD SVG 20010904//EN"
 "http://www.w3.org/TR/2001/REC-SVG-20010904/DTD/svg10.dtd">
<svg version="1.0" xmlns="http://www.w3.org/2000/svg"
 width="1126.000000pt" height="1126.000000pt" viewBox="0 0 1126.000000 1126.000000"
 preserveAspectRatio="xMidYMid meet">
<metadata>
Created by potrace 1.14, written by Peter Selinger 2001-2017
</metadata>
<g transform="translate(0.000000,1126.000000) scale(0.100000,-0.100000)"
fill="#000000" stroke="none">
<path d="M730 6095 l0 -4420 556 0 c306 0 558 -4 561 -8 3 -5 5 -191 5 -413
l0 -404 4388 0 4388 0 0 4270 0 4270 -32 1 c-17 0 -203 1 -413 1 l-383 0 0
562 0 561 -4535 0 -4535 0 0 -4420z m8770 3709 l0 -412 -3787 0 c-2084 -1
-3804 -1 -3824 -1 l-37 -1 -1 -3667 c0 -2018 0 -3686 -1 -3708 l0 -40 -407 0
-408 0 -3 4114 c-1 2450 2 4117 7 4120 5 3 1911 6 4235 6 l4226 0 0 -411z"/>
</g>
</svg>
